<svg width="11" height="11" viewBox="0 0 11 11" fill="none" xmlns="http://www.w3.org/2000/svg">
<path d="M0.678445 0.678628C0.74521 0.611693 0.824525 0.558587 0.911846 0.522353C0.999167 0.486119 1.09278 0.467468 1.18732 0.467468C1.28186 0.467468 1.37547 0.486119 1.46279 0.522353C1.55011 0.558587 1.62943 0.611693 1.69619 0.678628L5.49982 4.48369L9.30344 0.678628C9.37027 0.611801 9.4496 0.558792 9.53692 0.522625C9.62423 0.486459 9.71781 0.467845 9.81232 0.467845C9.90683 0.467845 10.0004 0.486459 10.0877 0.522625C10.175 0.558792 10.2544 0.611801 10.3212 0.678628C10.388 0.745454 10.441 0.824788 10.4772 0.912101C10.5134 0.999414 10.532 1.093 10.532 1.1875C10.532 1.28201 10.5134 1.37559 10.4772 1.4629C10.441 1.55022 10.388 1.62955 10.3212 1.69638L6.51613 5.5L10.3212 9.30363C10.388 9.37045 10.441 9.44979 10.4772 9.5371C10.5134 9.62441 10.532 9.718 10.532 9.8125C10.532 9.90701 10.5134 10.0006 10.4772 10.0879C10.441 10.1752 10.388 10.2546 10.3212 10.3214C10.2544 10.3882 10.175 10.4412 10.0877 10.4774C10.0004 10.5135 9.90683 10.5322 9.81232 10.5322C9.71781 10.5322 9.62423 10.5135 9.53692 10.4774C9.4496 10.4412 9.37027 10.3882 9.30344 10.3214L5.49982 6.51631L1.69619 10.3214C1.62937 10.3882 1.55003 10.4412 1.46272 10.4774C1.37541 10.5135 1.28183 10.5322 1.18732 10.5322C1.09281 10.5322 0.999231 10.5135 0.911918 10.4774C0.824605 10.4412 0.745271 10.3882 0.678445 10.3214C0.611618 10.2546 0.558608 10.1752 0.522442 10.0879C0.486276 10.0006 0.467661 9.90701 0.467661 9.8125C0.467661 9.718 0.486276 9.62441 0.522442 9.5371C0.558608 9.44979 0.611618 9.37045 0.678445 9.30363L4.48351 5.5L0.678445 1.69638C0.61151 1.62961 0.558404 1.5503 0.52217 1.46298C0.485936 1.37566 0.467285 1.28204 0.467285 1.1875C0.467285 1.09296 0.485936 0.99935 0.52217 0.912029C0.558404 0.824708 0.61151 0.745393 0.678445 0.678628Z" fill="#95939A"/>
</svg>
