<svg width="20" height="21" viewBox="0 0 20 21" fill="none" xmlns="http://www.w3.org/2000/svg">
<path d="M10 0.5C4.47768 0.5 0 4.97768 0 10.5C0 16.0223 4.47768 20.5 10 20.5C15.5223 20.5 20 16.0223 20 10.5C20 4.97768 15.5223 0.5 10 0.5ZM9.28571 5.67857C9.28571 5.58036 9.36607 5.5 9.46429 5.5H10.5357C10.6339 5.5 10.7143 5.58036 10.7143 5.67857V11.75C10.7143 11.8482 10.6339 11.9286 10.5357 11.9286H9.46429C9.36607 11.9286 9.28571 11.8482 9.28571 11.75V5.67857ZM10 15.5C9.71963 15.4943 9.45267 15.3789 9.25641 15.1786C9.06014 14.9783 8.95022 14.709 8.95022 14.4286C8.95022 14.1481 9.06014 13.8789 9.25641 13.6786C9.45267 13.4783 9.71963 13.3629 10 13.3571C10.2804 13.3629 10.5473 13.4783 10.7436 13.6786C10.9399 13.8789 11.0498 14.1481 11.0498 14.4286C11.0498 14.709 10.9399 14.9783 10.7436 15.1786C10.5473 15.3789 10.2804 15.4943 10 15.5Z" fill="#DC3545"/>
</svg>
