<svg width="276" height="24" viewBox="0 0 276 24" fill="none" xmlns="http://www.w3.org/2000/svg">
<path d="M25.2336 18.8C24.5003 18.8 23.9336 18.6 23.5336 18.2C23.1336 17.7833 22.9336 17.2083 22.9336 16.475V3.275C22.9336 2.525 23.1336 1.95 23.5336 1.55C23.9503 1.15 24.5253 0.95 25.2586 0.95H31.4086C33.4086 0.95 34.9503 1.44167 36.0336 2.425C37.1336 3.39167 37.6836 4.74167 37.6836 6.475C37.6836 7.59167 37.4336 8.56667 36.9336 9.4C36.4503 10.2167 35.7419 10.85 34.8086 11.3C33.8919 11.7333 32.7586 11.95 31.4086 11.95L31.6086 11.5H32.8086C33.5253 11.5 34.1586 11.675 34.7086 12.025C35.2586 12.3583 35.7169 12.875 36.0836 13.575L37.3336 15.825C37.6003 16.3083 37.7253 16.7833 37.7086 17.25C37.6919 17.7 37.5086 18.075 37.1586 18.375C36.8253 18.6583 36.3336 18.8 35.6836 18.8C35.0336 18.8 34.5003 18.6667 34.0836 18.4C33.6836 18.1333 33.3253 17.7167 33.0086 17.15L30.7336 12.975C30.5336 12.6083 30.2753 12.3583 29.9586 12.225C29.6586 12.075 29.3086 12 28.9086 12H27.5336V16.475C27.5336 17.2083 27.3419 17.7833 26.9586 18.2C26.5753 18.6 26.0003 18.8 25.2336 18.8ZM27.5336 8.75H30.5836C31.4669 8.75 32.1419 8.575 32.6086 8.225C33.0753 7.875 33.3086 7.33333 33.3086 6.6C33.3086 5.9 33.0753 5.375 32.6086 5.025C32.1419 4.65833 31.4669 4.475 30.5836 4.475H27.5336V8.75Z" fill="white"/>
<path d="M46.6432 18.85C45.1432 18.85 43.8432 18.5917 42.7432 18.075C41.6598 17.5417 40.8265 16.7917 40.2432 15.825C39.6598 14.8583 39.3682 13.7167 39.3682 12.4C39.3682 11.1333 39.6432 10.025 40.1932 9.075C40.7598 8.10833 41.5265 7.35833 42.4932 6.825C43.4765 6.275 44.5932 6 45.8432 6C46.7598 6 47.5932 6.15 48.3432 6.45C49.0932 6.73333 49.7348 7.15833 50.2682 7.725C50.8015 8.275 51.2015 8.94167 51.4682 9.725C51.7515 10.5083 51.8932 11.3833 51.8932 12.35C51.8932 12.6833 51.8015 12.9333 51.6182 13.1C51.4348 13.25 51.1432 13.325 50.7432 13.325H43.0932V11.225H48.6432L48.2432 11.55C48.2432 10.9333 48.1598 10.4333 47.9932 10.05C47.8265 9.66667 47.5765 9.375 47.2432 9.175C46.9265 8.975 46.5265 8.875 46.0432 8.875C45.5265 8.875 45.0765 9 44.6932 9.25C44.3265 9.48333 44.0432 9.83333 43.8432 10.3C43.6432 10.7667 43.5432 11.35 43.5432 12.05V12.275C43.5432 13.4583 43.8015 14.3083 44.3182 14.825C44.8515 15.325 45.6682 15.575 46.7682 15.575C47.1348 15.575 47.5515 15.5333 48.0182 15.45C48.5015 15.35 48.9598 15.2167 49.3932 15.05C49.8265 14.8833 50.2015 14.8583 50.5182 14.975C50.8348 15.075 51.0765 15.2583 51.2432 15.525C51.4265 15.775 51.5265 16.0667 51.5432 16.4C51.5598 16.7167 51.4848 17.0333 51.3182 17.35C51.1515 17.65 50.8765 17.8833 50.4932 18.05C49.9098 18.3167 49.2848 18.5167 48.6182 18.65C47.9682 18.7833 47.3098 18.85 46.6432 18.85Z" fill="white"/>
<path d="M58.6104 18.85C57.5604 18.85 56.627 18.5917 55.8104 18.075C55.0104 17.5583 54.377 16.8167 53.9104 15.85C53.4604 14.8833 53.2354 13.7417 53.2354 12.425C53.2354 11.075 53.4604 9.925 53.9104 8.975C54.377 8.025 55.0104 7.29167 55.8104 6.775C56.627 6.25833 57.5604 6 58.6104 6C59.527 6 60.352 6.21667 61.0854 6.65C61.8187 7.08333 62.3104 7.64167 62.5604 8.325H62.2854V2.975C62.2854 2.24167 62.477 1.68333 62.8604 1.3C63.2437 0.916666 63.7937 0.725 64.5104 0.725C65.2104 0.725 65.752 0.916666 66.1354 1.3C66.5354 1.68333 66.7354 2.24167 66.7354 2.975V16.55C66.7354 17.2833 66.5437 17.8417 66.1604 18.225C65.7937 18.6083 65.252 18.8 64.5354 18.8C63.8354 18.8 63.2937 18.6083 62.9104 18.225C62.527 17.8417 62.3354 17.2833 62.3354 16.55V15.125L62.6104 16.35C62.377 17.1 61.8854 17.7083 61.1354 18.175C60.402 18.625 59.5604 18.85 58.6104 18.85ZM60.0354 15.575C60.4854 15.575 60.8854 15.4667 61.2354 15.25C61.5854 15.0167 61.852 14.675 62.0354 14.225C62.2354 13.7583 62.3354 13.1583 62.3354 12.425C62.3354 11.3083 62.1187 10.5083 61.6854 10.025C61.252 9.525 60.702 9.275 60.0354 9.275C59.5854 9.275 59.1854 9.38333 58.8354 9.6C58.4854 9.81667 58.2104 10.1583 58.0104 10.625C57.8104 11.075 57.7104 11.675 57.7104 12.425C57.7104 13.525 57.927 14.325 58.3604 14.825C58.7937 15.325 59.352 15.575 60.0354 15.575Z" fill="white"/>
<path d="M77.4133 18.85C76.4633 18.85 75.6133 18.625 74.8633 18.175C74.1299 17.7083 73.6466 17.1 73.4133 16.35L73.6883 15.325V16.55C73.6883 17.2833 73.4966 17.8417 73.1133 18.225C72.7466 18.6083 72.2133 18.8 71.5133 18.8C70.7966 18.8 70.2466 18.6083 69.8633 18.225C69.4966 17.8417 69.3133 17.2833 69.3133 16.55V2.975C69.3133 2.24167 69.5049 1.68333 69.8883 1.3C70.2716 0.916666 70.8133 0.725 71.5133 0.725C72.2299 0.725 72.7799 0.916666 73.1633 1.3C73.5633 1.68333 73.7633 2.24167 73.7633 2.975V8.325H73.4633C73.7133 7.64167 74.2049 7.08333 74.9383 6.65C75.6716 6.21667 76.4966 6 77.4133 6C78.4799 6 79.4133 6.25833 80.2133 6.775C81.0299 7.29167 81.6633 8.025 82.1133 8.975C82.5633 9.925 82.7883 11.075 82.7883 12.425C82.7883 13.7417 82.5633 14.8833 82.1133 15.85C81.6633 16.8167 81.0299 17.5583 80.2133 18.075C79.4133 18.5917 78.4799 18.85 77.4133 18.85ZM76.0133 15.575C76.4633 15.575 76.8549 15.4667 77.1883 15.25C77.5383 15.0167 77.8133 14.675 78.0133 14.225C78.2133 13.7583 78.3133 13.1583 78.3133 12.425C78.3133 11.3083 78.0966 10.5083 77.6633 10.025C77.2299 9.525 76.68 9.275 76.0133 9.275C75.5633 9.275 75.1633 9.38333 74.8133 9.6C74.4633 9.81667 74.1883 10.1583 73.9883 10.625C73.7883 11.075 73.6883 11.675 73.6883 12.425C73.6883 13.525 73.9049 14.325 74.3383 14.825C74.7716 15.325 75.3299 15.575 76.0133 15.575Z" fill="white"/>
<path d="M91.5162 18.85C90.0162 18.85 88.7162 18.5917 87.6162 18.075C86.5329 17.5417 85.6995 16.7917 85.1162 15.825C84.5329 14.8583 84.2412 13.7167 84.2412 12.4C84.2412 11.1333 84.5162 10.025 85.0662 9.075C85.6329 8.10833 86.3995 7.35833 87.3662 6.825C88.3495 6.275 89.4662 6 90.7162 6C91.6329 6 92.4662 6.15 93.2162 6.45C93.9662 6.73333 94.6079 7.15833 95.1412 7.725C95.6745 8.275 96.0745 8.94167 96.3412 9.725C96.6245 10.5083 96.7662 11.3833 96.7662 12.35C96.7662 12.6833 96.6745 12.9333 96.4912 13.1C96.3079 13.25 96.0162 13.325 95.6162 13.325H87.9662V11.225H93.5162L93.1162 11.55C93.1162 10.9333 93.0329 10.4333 92.8662 10.05C92.6995 9.66667 92.4495 9.375 92.1162 9.175C91.7995 8.975 91.3995 8.875 90.9162 8.875C90.3995 8.875 89.9495 9 89.5662 9.25C89.1995 9.48333 88.9162 9.83333 88.7162 10.3C88.5162 10.7667 88.4162 11.35 88.4162 12.05V12.275C88.4162 13.4583 88.6745 14.3083 89.1912 14.825C89.7245 15.325 90.5412 15.575 91.6412 15.575C92.0079 15.575 92.4245 15.5333 92.8912 15.45C93.3745 15.35 93.8329 15.2167 94.2662 15.05C94.6995 14.8833 95.0745 14.8583 95.3912 14.975C95.7079 15.075 95.9495 15.2583 96.1162 15.525C96.2995 15.775 96.3995 16.0667 96.4162 16.4C96.4329 16.7167 96.3579 17.0333 96.1912 17.35C96.0245 17.65 95.7495 17.8833 95.3662 18.05C94.7829 18.3167 94.1579 18.5167 93.4912 18.65C92.8412 18.7833 92.1829 18.85 91.5162 18.85Z" fill="white"/>
<path d="M100.958 18.8C100.225 18.8 99.6584 18.6083 99.2584 18.225C98.8751 17.8417 98.6834 17.2833 98.6834 16.55V8.275C98.6834 7.55833 98.8667 7.00833 99.2334 6.625C99.6167 6.24167 100.158 6.05 100.858 6.05C101.558 6.05 102.092 6.24167 102.458 6.625C102.825 7.00833 103.008 7.55833 103.008 8.275V9.3H102.758C102.925 8.3 103.35 7.50833 104.033 6.925C104.733 6.34167 105.6 6.03333 106.633 6C107.117 5.98333 107.475 6.10833 107.708 6.375C107.958 6.625 108.092 7.1 108.108 7.8C108.108 8.4 107.983 8.875 107.733 9.225C107.483 9.575 107.008 9.78333 106.308 9.85L105.733 9.9C104.85 9.98333 104.208 10.2333 103.808 10.65C103.408 11.05 103.208 11.65 103.208 12.45V16.55C103.208 17.2833 103.017 17.8417 102.633 18.225C102.25 18.6083 101.692 18.8 100.958 18.8Z" fill="white"/>
<path d="M111.798 18.8C111.065 18.8 110.498 18.6083 110.098 18.225C109.715 17.8417 109.523 17.2833 109.523 16.55V8.275C109.523 7.55833 109.707 7.00833 110.073 6.625C110.457 6.24167 110.998 6.05 111.698 6.05C112.398 6.05 112.932 6.24167 113.298 6.625C113.665 7.00833 113.848 7.55833 113.848 8.275V9.3H113.598C113.765 8.3 114.19 7.50833 114.873 6.925C115.573 6.34167 116.44 6.03333 117.473 6C117.957 5.98333 118.315 6.10833 118.548 6.375C118.798 6.625 118.932 7.1 118.948 7.8C118.948 8.4 118.823 8.875 118.573 9.225C118.323 9.575 117.848 9.78333 117.148 9.85L116.573 9.9C115.69 9.98333 115.048 10.2333 114.648 10.65C114.248 11.05 114.048 11.65 114.048 12.45V16.55C114.048 17.2833 113.857 17.8417 113.473 18.225C113.09 18.6083 112.532 18.8 111.798 18.8Z" fill="white"/>
<path d="M124.695 23.3C124.178 23.3 123.762 23.1667 123.445 22.9C123.128 22.6333 122.928 22.2833 122.845 21.85C122.778 21.4167 122.853 20.9583 123.07 20.475L124.745 16.85V18.65L120.47 8.875C120.253 8.375 120.178 7.90833 120.245 7.475C120.328 7.04167 120.553 6.7 120.92 6.45C121.287 6.18333 121.787 6.05 122.42 6.05C122.953 6.05 123.378 6.175 123.695 6.425C124.028 6.65833 124.328 7.125 124.595 7.825L127.095 14.325H126.245L128.895 7.8C129.162 7.11667 129.462 6.65833 129.795 6.425C130.145 6.175 130.612 6.05 131.195 6.05C131.695 6.05 132.095 6.18333 132.395 6.45C132.695 6.7 132.878 7.04167 132.945 7.475C133.012 7.90833 132.937 8.375 132.72 8.875L127.045 21.625C126.745 22.2917 126.412 22.7333 126.045 22.95C125.695 23.1833 125.245 23.3 124.695 23.3Z" fill="white"/>
<path d="M144.399 18.8C143.665 18.8 143.099 18.6 142.699 18.2C142.299 17.7833 142.099 17.2083 142.099 16.475V3.05C142.099 2.28333 142.299 1.70833 142.699 1.325C143.099 0.924999 143.665 0.725 144.399 0.725C145.149 0.725 145.715 0.924999 146.099 1.325C146.499 1.70833 146.699 2.28333 146.699 3.05V8.5H146.749L152.824 1.8C153.14 1.46667 153.474 1.20833 153.824 1.025C154.19 0.825 154.599 0.725 155.049 0.725C155.749 0.725 156.249 0.908333 156.549 1.275C156.865 1.625 157.007 2.04167 156.974 2.525C156.957 2.99167 156.765 3.425 156.399 3.825L150.349 10.25V8.375L156.699 15.55C157.132 16.0333 157.349 16.5333 157.349 17.05C157.349 17.55 157.174 17.9667 156.824 18.3C156.49 18.6333 155.99 18.8 155.324 18.8C154.757 18.8 154.299 18.6917 153.949 18.475C153.615 18.2417 153.249 17.9 152.849 17.45L146.749 10.625H146.699V16.475C146.699 17.2083 146.507 17.7833 146.124 18.2C145.74 18.6 145.165 18.8 144.399 18.8Z" fill="white"/>
<path d="M161.796 18.8C161.096 18.8 160.555 18.6083 160.171 18.225C159.788 17.8417 159.596 17.2833 159.596 16.55V8.275C159.596 7.55833 159.78 7.00833 160.146 6.625C160.53 6.24167 161.071 6.05 161.771 6.05C162.471 6.05 163.005 6.24167 163.371 6.625C163.738 7.00833 163.921 7.55833 163.921 8.275V9.45L163.646 8.425C164.046 7.64167 164.613 7.04167 165.346 6.625C166.096 6.20833 166.946 6 167.896 6C168.88 6 169.688 6.19167 170.321 6.575C170.955 6.94167 171.43 7.525 171.746 8.325C172.063 9.10833 172.221 10.1 172.221 11.3V16.55C172.221 17.2833 172.03 17.8417 171.646 18.225C171.263 18.6083 170.713 18.8 169.996 18.8C169.28 18.8 168.73 18.6083 168.346 18.225C167.963 17.8417 167.771 17.2833 167.771 16.55V11.475C167.771 10.725 167.638 10.1917 167.371 9.875C167.121 9.55833 166.746 9.4 166.246 9.4C165.58 9.4 165.046 9.61667 164.646 10.05C164.246 10.4667 164.046 11.0333 164.046 11.75V16.55C164.046 18.05 163.296 18.8 161.796 18.8Z" fill="white"/>
<path d="M176.958 18.8C176.258 18.8 175.716 18.5917 175.333 18.175C174.949 17.7583 174.758 17.1583 174.758 16.375V8.475C174.758 7.69167 174.949 7.09167 175.333 6.675C175.716 6.25833 176.258 6.05 176.958 6.05C177.674 6.05 178.224 6.25833 178.608 6.675C179.008 7.09167 179.208 7.69167 179.208 8.475V16.375C179.208 17.1583 179.016 17.7583 178.633 18.175C178.249 18.5917 177.691 18.8 176.958 18.8ZM176.958 4.275C176.174 4.275 175.566 4.09167 175.133 3.725C174.716 3.35833 174.508 2.825 174.508 2.125C174.508 1.44167 174.716 0.916666 175.133 0.55C175.566 0.183333 176.174 0 176.958 0C177.774 0 178.391 0.183333 178.808 0.55C179.224 0.916666 179.433 1.44167 179.433 2.125C179.433 2.825 179.224 3.35833 178.808 3.725C178.391 4.09167 177.774 4.275 176.958 4.275Z" fill="white"/>
<path d="M187.889 23.35C186.972 23.35 186.114 23.2833 185.314 23.15C184.514 23.0333 183.822 22.8583 183.239 22.625C182.756 22.4583 182.414 22.2167 182.214 21.9C182.014 21.5833 181.922 21.25 181.939 20.9C181.956 20.55 182.047 20.2333 182.214 19.95C182.397 19.6667 182.639 19.4583 182.939 19.325C183.239 19.2083 183.572 19.2167 183.939 19.35C184.672 19.65 185.339 19.8417 185.939 19.925C186.539 20.025 187.047 20.075 187.464 20.075C188.481 20.075 189.239 19.8583 189.739 19.425C190.256 19.0083 190.514 18.35 190.514 17.45V15.875H190.714C190.464 16.575 189.956 17.15 189.189 17.6C188.422 18.0333 187.589 18.25 186.689 18.25C185.589 18.25 184.631 18 183.814 17.5C182.997 16.9833 182.356 16.2667 181.889 15.35C181.439 14.4333 181.214 13.3583 181.214 12.125C181.214 11.1917 181.347 10.35 181.614 9.6C181.881 8.85 182.247 8.20833 182.714 7.675C183.197 7.14167 183.772 6.73333 184.439 6.45C185.122 6.15 185.872 6 186.689 6C187.622 6 188.456 6.21667 189.189 6.65C189.939 7.08333 190.439 7.65 190.689 8.35L190.439 9.375V8.275C190.439 7.55833 190.631 7.00833 191.014 6.625C191.414 6.24167 191.964 6.05 192.664 6.05C193.364 6.05 193.897 6.24167 194.264 6.625C194.647 7.00833 194.839 7.55833 194.839 8.275V16.925C194.839 19.0583 194.239 20.6583 193.039 21.725C191.839 22.8083 190.122 23.35 187.889 23.35ZM188.064 14.975C188.564 14.975 188.989 14.8667 189.339 14.65C189.689 14.4167 189.964 14.0917 190.164 13.675C190.364 13.2417 190.464 12.725 190.464 12.125C190.464 11.225 190.247 10.525 189.814 10.025C189.381 9.525 188.797 9.275 188.064 9.275C187.597 9.275 187.181 9.39167 186.814 9.625C186.447 9.84167 186.164 10.1667 185.964 10.6C185.781 11.0167 185.689 11.525 185.689 12.125C185.689 13.025 185.906 13.725 186.339 14.225C186.772 14.725 187.347 14.975 188.064 14.975Z" fill="white"/>
<path d="M199.638 18.8C198.938 18.8 198.397 18.6083 198.013 18.225C197.63 17.8417 197.438 17.2833 197.438 16.55V2.975C197.438 2.24167 197.63 1.68333 198.013 1.3C198.397 0.916666 198.938 0.725 199.638 0.725C200.355 0.725 200.905 0.916666 201.288 1.3C201.688 1.68333 201.888 2.24167 201.888 2.975V8.425H201.488C201.888 7.64167 202.455 7.04167 203.188 6.625C203.938 6.20833 204.788 6 205.738 6C206.722 6 207.53 6.19167 208.163 6.575C208.797 6.94167 209.272 7.525 209.588 8.325C209.905 9.10833 210.063 10.1 210.063 11.3V16.55C210.063 17.2833 209.872 17.8417 209.488 18.225C209.105 18.6083 208.555 18.8 207.838 18.8C207.122 18.8 206.572 18.6083 206.188 18.225C205.805 17.8417 205.613 17.2833 205.613 16.55V11.475C205.613 10.725 205.48 10.1917 205.213 9.875C204.963 9.55833 204.588 9.4 204.088 9.4C203.422 9.4 202.888 9.61667 202.488 10.05C202.088 10.4667 201.888 11.0333 201.888 11.75V16.55C201.888 18.05 201.138 18.8 199.638 18.8Z" fill="white"/>
<path d="M219.049 18.85C217.799 18.85 216.766 18.6583 215.949 18.275C215.149 17.8917 214.549 17.3167 214.149 16.55C213.749 15.7667 213.549 14.7917 213.549 13.625V9.55H212.699C212.166 9.55 211.749 9.40833 211.449 9.125C211.166 8.84167 211.024 8.43333 211.024 7.9C211.024 7.36667 211.166 6.96667 211.449 6.7C211.749 6.41667 212.166 6.275 212.699 6.275H213.549V4.725C213.549 3.99167 213.741 3.43333 214.124 3.05C214.508 2.66667 215.058 2.475 215.774 2.475C216.491 2.475 217.041 2.66667 217.424 3.05C217.808 3.43333 217.999 3.99167 217.999 4.725V6.275H220.049C220.599 6.275 221.016 6.41667 221.299 6.7C221.599 6.96667 221.749 7.36667 221.749 7.9C221.749 8.43333 221.599 8.84167 221.299 9.125C221.016 9.40833 220.599 9.55 220.049 9.55H217.999V13.475C217.999 14.0917 218.141 14.55 218.424 14.85C218.724 15.1333 219.191 15.275 219.824 15.275C220.058 15.275 220.283 15.25 220.499 15.2C220.716 15.15 220.916 15.125 221.099 15.125C221.366 15.1083 221.583 15.1917 221.749 15.375C221.916 15.5417 221.999 15.9333 221.999 16.55C221.999 17.05 221.924 17.475 221.774 17.825C221.624 18.1583 221.358 18.4 220.974 18.55C220.741 18.6333 220.424 18.7 220.024 18.75C219.624 18.8167 219.299 18.85 219.049 18.85Z" fill="white"/>
<path d="M239.597 18.85C237.647 18.85 235.972 18.475 234.572 17.725C233.172 16.975 232.097 15.9167 231.347 14.55C230.614 13.1833 230.247 11.5833 230.247 9.75C230.247 8.38333 230.456 7.14167 230.872 6.025C231.306 4.90833 231.922 3.95 232.722 3.15C233.539 2.35 234.522 1.74167 235.672 1.325C236.839 0.891667 238.147 0.675 239.597 0.675C240.364 0.675 241.156 0.766667 241.972 0.95C242.806 1.11667 243.539 1.375 244.172 1.725C244.639 1.975 244.964 2.29167 245.147 2.675C245.331 3.05833 245.389 3.45 245.322 3.85C245.272 4.25 245.131 4.60833 244.897 4.925C244.664 5.24167 244.364 5.45833 243.997 5.575C243.631 5.675 243.231 5.61667 242.797 5.4C242.297 5.16667 241.797 4.99167 241.297 4.875C240.814 4.74167 240.306 4.675 239.772 4.675C238.739 4.675 237.872 4.875 237.172 5.275C236.489 5.65833 235.972 6.225 235.622 6.975C235.272 7.725 235.097 8.65 235.097 9.75C235.097 10.85 235.272 11.7833 235.622 12.55C235.972 13.3 236.489 13.875 237.172 14.275C237.872 14.6583 238.739 14.85 239.772 14.85C240.206 14.85 240.672 14.8 241.172 14.7C241.672 14.5833 242.164 14.4083 242.647 14.175C243.147 13.9583 243.589 13.9 243.972 14C244.372 14.1 244.689 14.3 244.922 14.6C245.172 14.9 245.331 15.25 245.397 15.65C245.464 16.0333 245.406 16.4167 245.222 16.8C245.056 17.1833 244.756 17.4917 244.322 17.725C243.739 18.075 243.014 18.35 242.147 18.55C241.297 18.75 240.447 18.85 239.597 18.85Z" fill="white"/>
<path d="M251.867 18.85C250.801 18.85 249.926 18.6583 249.242 18.275C248.559 17.875 248.042 17.2833 247.692 16.5C247.359 15.7167 247.192 14.725 247.192 13.525V8.275C247.192 7.54167 247.384 6.99167 247.767 6.625C248.151 6.24167 248.701 6.05 249.417 6.05C250.134 6.05 250.684 6.24167 251.067 6.625C251.451 6.99167 251.642 7.54167 251.642 8.275V13.65C251.642 14.25 251.767 14.7 252.017 15C252.267 15.3 252.659 15.45 253.192 15.45C253.792 15.45 254.284 15.2333 254.667 14.8C255.051 14.3667 255.242 13.7917 255.242 13.075V8.275C255.242 7.54167 255.434 6.99167 255.817 6.625C256.201 6.24167 256.751 6.05 257.467 6.05C258.184 6.05 258.734 6.24167 259.117 6.625C259.501 6.99167 259.692 7.54167 259.692 8.275V16.55C259.692 18.05 258.976 18.8 257.542 18.8C256.842 18.8 256.301 18.6083 255.917 18.225C255.534 17.8417 255.342 17.2833 255.342 16.55V15.1L255.742 16.325C255.376 17.1417 254.859 17.7667 254.192 18.2C253.542 18.6333 252.767 18.85 251.867 18.85Z" fill="white"/>
<path d="M264.482 23.3C263.782 23.3 263.24 23.1083 262.857 22.725C262.474 22.3417 262.282 21.7833 262.282 21.05V8.275C262.282 7.55833 262.465 7.00833 262.832 6.625C263.215 6.24167 263.757 6.05 264.457 6.05C265.174 6.05 265.715 6.24167 266.082 6.625C266.465 7.00833 266.657 7.55833 266.657 8.275V9.725L266.382 8.5C266.615 7.75 267.099 7.15 267.832 6.7C268.582 6.23333 269.432 6 270.382 6C271.449 6 272.382 6.25833 273.182 6.775C273.999 7.29167 274.632 8.025 275.082 8.975C275.532 9.925 275.757 11.075 275.757 12.425C275.757 13.7417 275.532 14.8833 275.082 15.85C274.632 16.8167 273.999 17.5583 273.182 18.075C272.382 18.5917 271.449 18.85 270.382 18.85C269.465 18.85 268.64 18.6333 267.907 18.2C267.174 17.7667 266.682 17.2 266.432 16.5H266.732V21.05C266.732 21.7833 266.532 22.3417 266.132 22.725C265.749 23.1083 265.199 23.3 264.482 23.3ZM268.982 15.575C269.432 15.575 269.824 15.4667 270.157 15.25C270.507 15.0167 270.782 14.675 270.982 14.225C271.182 13.7583 271.282 13.1583 271.282 12.425C271.282 11.3083 271.065 10.5083 270.632 10.025C270.199 9.525 269.649 9.275 268.982 9.275C268.532 9.275 268.132 9.38333 267.782 9.6C267.432 9.81667 267.157 10.1583 266.957 10.625C266.757 11.075 266.657 11.675 266.657 12.425C266.657 13.525 266.874 14.325 267.307 14.825C267.74 15.325 268.299 15.575 268.982 15.575Z" fill="white"/>
<path d="M12.8333 1.32502C13.3196 1.32502 13.7859 1.51818 14.1297 1.86199C14.4735 2.20581 14.6667 2.67213 14.6667 3.15836C14.6667 3.90086 14.2083 4.53336 13.5942 4.82669L11.9167 10.6292V15.075H2.75V10.6292L1.0725 4.82669C0.458333 4.53336 0 3.90086 0 3.15836C0 2.67213 0.193154 2.20581 0.536971 1.86199C0.880787 1.51818 1.3471 1.32502 1.83333 1.32502C2.31956 1.32502 2.78588 1.51818 3.1297 1.86199C3.47351 2.20581 3.66667 2.67213 3.66667 3.15836C3.66667 3.61669 3.50167 4.02919 3.20833 4.35002L5.775 7.14586L6.26083 3.72669C5.8025 3.39669 5.5 2.85586 5.5 2.24169C5.5 1.75546 5.69315 1.28914 6.03697 0.945327C6.38079 0.60151 6.8471 0.408356 7.33333 0.408356C7.81956 0.408356 8.28588 0.60151 8.62969 0.945327C8.97351 1.28914 9.16667 1.75546 9.16667 2.24169C9.16667 2.85586 8.86417 3.39669 8.40583 3.72669L8.89167 7.14586L11.4308 4.34086C11.1522 4.00987 10.9996 3.59101 11 3.15836C11 2.67213 11.1932 2.20581 11.537 1.86199C11.8808 1.51818 12.3471 1.32502 12.8333 1.32502ZM0.916667 16.9084H13.75V18.7417H0.916667V16.9084Z" fill="white"/>
</svg>
